<?xml version="1.0" encoding="UTF-8" standalone="no"?>
<!-- Created with Inkscape (http://www.inkscape.org/) -->

<svg
   xmlns:dc="http://purl.org/dc/elements/1.1/"
   xmlns:cc="http://creativecommons.org/ns#"
   xmlns:rdf="http://www.w3.org/1999/02/22-rdf-syntax-ns#"
   xmlns:svg="http://www.w3.org/2000/svg"
   xmlns="http://www.w3.org/2000/svg"
   xmlns:sodipodi="http://sodipodi.sourceforge.net/DTD/sodipodi-0.dtd"
   xmlns:inkscape="http://www.inkscape.org/namespaces/inkscape"
   width="450mm"
   height="300mm"
   viewBox="0 0 450 300.00001"
   version="1.1"
   id="svg8"
   sodipodi:docname="banner.svg"
   inkscape:version="0.92.3 (2405546, 2018-03-11)">
  <defs
     id="defs2" />
  <sodipodi:namedview
     id="base"
     pagecolor="#737373"
     bordercolor="#666666"
     borderopacity="1.0"
     inkscape:pageopacity="0"
     inkscape:pageshadow="2"
     inkscape:zoom="0.50434028"
     inkscape:cx="864"
     inkscape:cy="576"
     inkscape:document-units="mm"
     inkscape:current-layer="layer1"
     showgrid="false"
     units="mm"
     inkscape:pagecheckerboard="false"
     inkscape:window-width="1366"
     inkscape:window-height="738"
     inkscape:window-x="0"
     inkscape:window-y="1"
     inkscape:window-maximized="1" />
  <metadata
     id="metadata5">
    <rdf:RDF>
      <cc:Work
         rdf:about="">
        <dc:format>image/svg+xml</dc:format>
        <dc:type
           rdf:resource="http://purl.org/dc/dcmitype/StillImage" />
        <dc:title></dc:title>
      </cc:Work>
    </rdf:RDF>
  </metadata>
  <g
     inkscape:label="Layer 1"
     inkscape:groupmode="layer"
     id="layer1"
     transform="translate(0,3.0000244)">
    <path
       style="opacity:0.98000004;fill:#ffffff;fill-opacity:1;stroke:none;stroke-width:8;stroke-miterlimit:3.98765421;stroke-dasharray:none;stroke-opacity:1"
       d="M 143.82245,36.484745 V 205.40983 h 93.38086 V 65.191001 63.563711 l -0.0109,1.614889 h -1.38028 v -1.102259 c 0,-0.517004 -0.12253,-0.918361 -0.36742,-1.204061 -0.2449,-0.285702 -0.82322,-0.601847 -1.73477,-0.948779 l -0.85732,-0.336931 -11.24427,4.622458 v -1.989542 l 8.93847,-3.571359 -8.93847,-3.571359 V 55.08671 l 12.48916,5.020365 c 1.36052,0.530609 2.24844,1.04743 2.6634,1.55081 0.19227,0.233236 0.33916,0.504037 0.44235,0.810287 V 36.484745 Z m 89.21419,29.693793 v 2.448946 l -5.58157,5.805847 h 5.58157 v 1.887742 h -15.87758 v -1.887742 h 9.37772 l -4.92838,-5.601724 v -2.397786 l 5.34644,6.060612 z m -3.15329,13.071035 c 1.0612,0 1.90173,0.42203 2.52077,1.26556 0.61904,0.83672 0.92811,1.98934 0.92811,3.4587 0,0.61224 -0.061,1.25209 -0.18345,1.91875 -0.11565,0.65985 -0.29263,1.35719 -0.53072,2.09186 h -1.93838 c 0.36054,-0.69387 0.6323,-1.37759 0.81597,-2.05104 0.17687,-0.67346 0.26562,-1.34054 0.26562,-2.00039 0,-0.88434 -0.14976,-1.56452 -0.44907,-2.0407 -0.30612,-0.47618 -0.7347,-0.71417 -1.28571,-0.71417 -0.51019,0 -0.90147,0.17344 -1.17357,0.52038 -0.27211,0.34013 -0.53379,1.09192 -0.78548,2.25516 l -0.15348,0.65319 c -0.2449,1.16325 -0.61902,2.00326 -1.12242,2.52026 -0.51019,0.51699 -1.207,0.77566 -2.09134,0.77566 -1.07481,0 -1.90475,-0.3812 -2.48977,-1.14308 -0.58503,-0.7619 -0.87798,-1.84343 -0.87798,-3.24477 0,-0.69386 0.0514,-1.34681 0.15348,-1.95905 0.10203,-0.61224 0.2548,-1.17696 0.45888,-1.69395 h 1.7756 c -0.2721,0.53061 -0.47631,1.08171 -0.61236,1.65313 -0.13605,0.57141 -0.20412,1.16336 -0.20412,1.7756 0,0.93194 0.14321,1.6323 0.42891,2.10168 0.28572,0.46258 0.7143,0.69401 1.28571,0.69401 0.43538,0 0.77874,-0.1669 1.03043,-0.50022 0.24489,-0.33334 0.47934,-1.00344 0.70383,-2.01022 l 0.14314,-0.64285 c 0.28571,-1.33331 0.6906,-2.27872 1.2144,-2.83652 0.517,-0.56462 1.24104,-0.84698 2.173,-0.84698 z m -3.74448,11.66337 h 6.89777 v 1.87741 h -6.83679 c -1.08161,0 -1.89087,0.21076 -2.42828,0.63252 -0.5374,0.42177 -0.80615,1.05455 -0.80615,1.89807 0,1.01359 0.32321,1.81278 0.96945,2.39779 0.64625,0.58503 1.52711,0.87746 2.64274,0.87746 h 6.45903 v 1.887747 H 221.6084 v -1.887747 h 1.77508 c -0.68706,-0.44896 -1.20034,-0.97586 -1.54047,-1.58129 -0.34013,-0.61224 -0.51056,-1.31663 -0.51056,-2.11254 0,-1.31289 0.40843,-2.3062 1.22473,-2.97966 0.80951,-0.67346 2.00349,-1.00976 3.58169,-1.00976 z m 1.19373,12.601817 c 1.87072,0 3.33999,0.4659 4.408,1.39785 1.0612,0.93196 1.59163,2.21417 1.59163,3.84679 0,1.63944 -0.53043,2.92518 -1.59163,3.85713 -1.06801,0.92514 -2.53728,1.38751 -4.408,1.38751 -1.87752,0 -3.34679,-0.46237 -4.408,-1.38751 -1.06121,-0.93195 -1.59215,-2.21769 -1.59215,-3.85713 0,-1.63262 0.53094,-2.91483 1.59215,-3.84679 1.06121,-0.93195 2.53048,-1.39785 4.408,-1.39785 z m 0,1.98954 c -1.35371,0 -2.42517,0.29245 -3.21428,0.87747 -0.7959,0.58502 -1.19372,1.37765 -1.19372,2.37763 0,1.00678 0.39429,1.80242 1.18339,2.38745 0.7823,0.58503 1.85729,0.87798 3.22461,0.87798 1.36732,0 2.44533,-0.28942 3.23442,-0.86765 0.78231,-0.58502 1.17358,-1.38419 1.17358,-2.39778 0,-0.99998 -0.39429,-1.79261 -1.18339,-2.37763 -0.78911,-0.58502 -1.86409,-0.87747 -3.22461,-0.87747 z m -1.92857,10.87737 c 2.6258,0 4.55442,0.69379 5.7857,2.08153 1.23126,1.38773 1.84691,3.5508 1.84691,6.48953 v 4.23488 h -15.23473 v -4.23488 c 0,-2.95233 0.61565,-5.11893 1.84692,-6.49987 1.22447,-1.38092 3.143,-2.07119 5.7552,-2.07119 z m 0,2.17351 c -2.04078,0 -3.53374,0.48959 -4.47931,1.46916 -0.95236,0.97277 -1.42885,2.51011 -1.42885,4.61212 v 2.48978 h 11.84682 v -2.48978 c 0,-2.10201 -0.47597,-3.63935 -1.42834,-4.61212 -0.95236,-0.97957 -2.45594,-1.46916 -4.51032,-1.46916 z m 0.73484,21.13205 h 6.89777 v 1.87792 h -6.83679 c -1.08161,0 -1.89087,0.21076 -2.42828,0.63252 -0.5374,0.42176 -0.80615,1.05404 -0.80615,1.89755 0,1.0136 0.32321,1.81328 0.96945,2.39831 0.64625,0.58502 1.52711,0.87746 2.64274,0.87746 h 6.45903 v 1.88774 h -15.87758 v -1.88774 h 6.22442 c -0.68706,-0.44898 -1.20034,-0.97638 -1.54047,-1.58181 -0.34013,-0.61223 -0.51056,-1.31612 -0.51056,-2.11202 0,-1.3129 0.40842,-2.30621 1.22473,-2.97966 0.80951,-0.67346 2.00349,-1.01027 3.58169,-1.01027 z m -4.09174,12.78578 h 1.75493 c -0.29251,0.53059 -0.51033,1.06456 -0.65319,1.60197 -0.14965,0.53059 -0.22427,1.0681 -0.22427,1.6123 0,1.21767 0.38774,2.16305 1.16323,2.83652 0.7687,0.67346 1.85024,1.01028 3.24477,1.01028 1.39453,0 2.47959,-0.33682 3.2551,-1.01028 0.76869,-0.67347 1.1529,-1.61885 1.1529,-2.83652 0,-0.5442 -0.0716,-1.08171 -0.21446,-1.6123 -0.14966,-0.53741 -0.37049,-1.07138 -0.66301,-1.60197 h 1.73478 c 0.24489,0.52378 0.42842,1.06783 0.55087,1.63246 0.12244,0.55781 0.18345,1.15329 0.18345,1.78593 0,1.72106 -0.54051,3.08797 -1.62212,4.10156 -1.08161,1.01359 -2.54081,1.52032 -4.37751,1.52032 -1.86392,0 -3.32965,-0.50974 -4.39767,-1.53014 -1.068,-1.02718 -1.60248,-2.43193 -1.60248,-4.21421 0,-0.57822 0.0615,-1.14294 0.18396,-1.69395 0.11565,-0.55102 0.29263,-1.08498 0.53072,-1.60197 z m 4.46898,12.10159 h 6.52053 v 1.8774 h -1.73477 c 0.69386,0.42856 1.20766,0.96252 1.54098,1.60197 0.32653,0.63945 0.48938,1.42199 0.48938,2.34714 0,1.17005 -0.32621,2.10184 -0.97927,2.7957 -0.65985,0.68706 -1.54071,1.03094 -2.64273,1.03094 -1.28569,0 -2.2553,-0.42859 -2.90835,-1.28571 -0.65305,-0.86392 -0.97927,-2.14966 -0.97927,-3.85713 V 166.452 h -0.18397 c -0.86393,0 -1.5305,0.2859 -1.99987,0.85731 -0.47619,0.56462 -0.71417,1.36077 -0.71417,2.38797 0,0.65305 0.0781,1.28886 0.23461,1.90789 0.15646,0.61903 0.39091,1.214 0.70383,1.78542 h -1.73426 c -0.2653,-0.68705 -0.46297,-1.35363 -0.59221,-1.99987 -0.13605,-0.64626 -0.20412,-1.27551 -0.20412,-1.88774 0,-1.65303 0.42858,-2.88734 1.28571,-3.70365 0.85712,-0.81632 2.15648,-1.22473 3.89795,-1.22473 z m 0.77566,1.8774 v 1.86759 c 0,1.51697 0.17345,2.56775 0.52038,3.15278 0.34694,0.58502 0.93889,0.87746 1.77561,0.87746 0.66665,0 1.19709,-0.21731 1.59163,-0.65267 0.38775,-0.44218 0.58188,-1.04118 0.58188,-1.79627 0,-1.0408 -0.36757,-1.87376 -1.10226,-2.49959 -0.74148,-0.63264 -1.72419,-0.9493 -2.94866,-0.9493 z m 4.0101,9.97975 h 1.73477 v 12.43852 h -1.57148 l -11.92847,-9.63249 v 9.39788 h -1.73478 v -11.9693 h 1.57148 l 11.92848,9.63249 z"
       id="rect812"
       inkscape:connector-curvature="0" />
  </g>
</svg>
